<svg width="1600" height="620" viewBox="0 0 1600 620" fill="none" xmlns="http://www.w3.org/2000/svg">
  <defs>
    <linearGradient id="bg" x1="80" y1="30" x2="1520" y2="590" gradientUnits="userSpaceOnUse">
      <stop stop-color="#050816"/>
      <stop offset="0.42" stop-color="#0F172A"/>
      <stop offset="1" stop-color="#1E1B4B"/>
    </linearGradient>
    <linearGradient id="line" x1="210" y1="150" x2="1320" y2="500" gradientUnits="userSpaceOnUse">
      <stop stop-color="#38BDF8"/>
      <stop offset="0.5" stop-color="#A78BFA"/>
      <stop offset="1" stop-color="#F472B6"/>
    </linearGradient>
    <linearGradient id="chip" x1="0" y1="0" x2="1" y2="1">
      <stop stop-color="#22D3EE"/>
      <stop offset="1" stop-color="#C084FC"/>
    </linearGradient>
    <filter id="glow" x="-30%" y="-30%" width="160%" height="160%">
      <feGaussianBlur stdDeviation="10" result="blur"/>
      <feMerge>
        <feMergeNode in="blur"/>
        <feMergeNode in="SourceGraphic"/>
      </feMerge>
    </filter>
  </defs>

  <rect width="1600" height="620" rx="36" fill="url(#bg)"/>
  <rect x="24" y="24" width="1552" height="572" rx="28" stroke="#7DD3FC" stroke-opacity="0.20" stroke-width="2"/>

  <g opacity="0.28">
    <path d="M0 500L1600 180" stroke="url(#line)" stroke-width="2"/>
    <path d="M0 560L1600 240" stroke="url(#line)" stroke-width="2"/>
    <path d="M0 440L1600 120" stroke="url(#line)" stroke-width="2"/>
    <path d="M250 0V620" stroke="#1E293B" stroke-width="1"/>
    <path d="M530 0V620" stroke="#1E293B" stroke-width="1"/>
    <path d="M810 0V620" stroke="#1E293B" stroke-width="1"/>
    <path d="M1090 0V620" stroke="#1E293B" stroke-width="1"/>
    <path d="M1370 0V620" stroke="#1E293B" stroke-width="1"/>
  </g>

  <g filter="url(#glow)">
    <circle cx="1310" cy="160" r="110" fill="#38BDF8" fill-opacity="0.08"/>
    <circle cx="1410" cy="250" r="72" fill="#A78BFA" fill-opacity="0.10"/>
    <circle cx="1220" cy="280" r="52" fill="#F472B6" fill-opacity="0.12"/>
  </g>

  <g>
    <rect x="96" y="100" width="540" height="64" rx="20" fill="#081225" stroke="#1E3A8A" stroke-width="2"/>
    <circle cx="132" cy="132" r="7" fill="#22C55E"/>
    <circle cx="158" cy="132" r="7" fill="#F59E0B"/>
    <circle cx="184" cy="132" r="7" fill="#F43F5E"/>
    <text x="214" y="142" fill="#BAE6FD" font-family="Segoe UI, Arial, sans-serif" font-size="24" font-weight="700">identity.core</text>
  </g>

  <g>
    <text x="100" y="250" fill="#F8FAFC" font-family="Segoe UI, Arial, sans-serif" font-size="72" font-weight="800">Yucheng Xiao</text>
    <text x="100" y="300" fill="#7DD3FC" font-family="Segoe UI, Arial, sans-serif" font-size="26" font-weight="700">Security Engineering // AI Tooling // Cyber Anime Identity</text>
    <text x="100" y="356" fill="#CBD5E1" font-family="Segoe UI, Arial, sans-serif" font-size="24">Building defense-oriented tools with a sharper public showcase.</text>
    <text x="100" y="392" fill="#CBD5E1" font-family="Segoe UI, Arial, sans-serif" font-size="24">Structured for GitHub now, extensible to a future personal site.</text>
  </g>

  <g>
    <rect x="100" y="452" width="190" height="54" rx="18" fill="#0F172A" stroke="#38BDF8" stroke-width="2"/>
    <rect x="310" y="452" width="204" height="54" rx="18" fill="#0F172A" stroke="#A78BFA" stroke-width="2"/>
    <rect x="534" y="452" width="192" height="54" rx="18" fill="#0F172A" stroke="#F472B6" stroke-width="2"/>
    <text x="129" y="486" fill="#E0F2FE" font-family="Segoe UI, Arial, sans-serif" font-size="22" font-weight="700">MCP security</text>
    <text x="341" y="486" fill="#EDE9FE" font-family="Segoe UI, Arial, sans-serif" font-size="22" font-weight="700">threat analysis</text>
    <text x="565" y="486" fill="#FCE7F3" font-family="Segoe UI, Arial, sans-serif" font-size="22" font-weight="700">visual identity</text>
  </g>

  <g>
    <rect x="1040" y="88" width="420" height="444" rx="28" fill="#060D1C" stroke="#334155" stroke-width="2"/>
    <rect x="1072" y="122" width="356" height="50" rx="14" fill="#0F172A"/>
    <text x="1102" y="154" fill="#93C5FD" font-family="Segoe UI, Arial, sans-serif" font-size="22" font-weight="700">operator status</text>

    <rect x="1072" y="204" width="160" height="118" rx="20" fill="#0B1327" stroke="#0EA5E9" stroke-width="2"/>
    <text x="1102" y="244" fill="#94A3B8" font-family="Segoe UI, Arial, sans-serif" font-size="18">focus_01</text>
    <text x="1102" y="286" fill="#F8FAFC" font-family="Segoe UI, Arial, sans-serif" font-size="28" font-weight="800">protocol</text>
    <text x="1102" y="314" fill="#7DD3FC" font-family="Segoe UI, Arial, sans-serif" font-size="20" font-weight="700">security</text>

    <rect x="1268" y="204" width="160" height="118" rx="20" fill="#0B1327" stroke="#8B5CF6" stroke-width="2"/>
    <text x="1298" y="244" fill="#94A3B8" font-family="Segoe UI, Arial, sans-serif" font-size="18">focus_02</text>
    <text x="1298" y="286" fill="#F8FAFC" font-family="Segoe UI, Arial, sans-serif" font-size="28" font-weight="800">agent</text>
    <text x="1298" y="314" fill="#C4B5FD" font-family="Segoe UI, Arial, sans-serif" font-size="20" font-weight="700">tooling</text>

    <rect x="1072" y="354" width="356" height="138" rx="22" fill="#0B1327" stroke="#F472B6" stroke-width="2"/>
    <text x="1102" y="392" fill="#94A3B8" font-family="Segoe UI, Arial, sans-serif" font-size="18">presentation_mode</text>
    <text x="1102" y="434" fill="#F8FAFC" font-family="Segoe UI, Arial, sans-serif" font-size="30" font-weight="800">clean + tactical + anime</text>
    <text x="1102" y="468" fill="#FBCFE8" font-family="Segoe UI, Arial, sans-serif" font-size="20">Make the profile feel intentional, not template-driven.</text>
  </g>

  <g opacity="0.85">
    <path d="M930 122H980" stroke="url(#chip)" stroke-width="4" stroke-linecap="round"/>
    <path d="M902 148H980" stroke="url(#chip)" stroke-width="4" stroke-linecap="round"/>
    <path d="M874 174H980" stroke="url(#chip)" stroke-width="4" stroke-linecap="round"/>
    <circle cx="836" cy="148" r="26" fill="#0F172A" stroke="url(#chip)" stroke-width="3"/>
    <path d="M826 148L836 136L846 148L836 160Z" fill="url(#chip)"/>
  </g>
</svg>
